<svg width="17" height="13" viewBox="0 0 17 13" fill="none" xmlns="http://www.w3.org/2000/svg">
<path fill-rule="evenodd" clip-rule="evenodd" d="M2.46986 1.2C2.00067 1.2 1.59999 1.59418 1.59999 2.09051V2.72745H15.4V2.09051C15.4 1.59418 14.9993 1.2 14.5301 1.2H2.46986ZM1.59999 4.64276V3.92745H15.4V4.64276H1.59999ZM1.59999 5.84276H15.4V10.1095C15.4 10.6058 14.9993 11 14.5301 11H2.46986C2.00067 11 1.59999 10.6058 1.59999 10.1095V5.84276ZM0.399994 3.32745V5.24276V10.1095C0.399994 11.2527 1.3222 12.2 2.46986 12.2H14.5301C15.6778 12.2 16.6 11.2527 16.6 10.1095V5.24276V3.32745V2.09051C16.6 0.947279 15.6778 0 14.5301 0H2.46986C1.3222 0 0.399994 0.947279 0.399994 2.09051V3.32745ZM10.5762 8.91324C10.2448 8.91324 9.97617 9.18187 9.97617 9.51324C9.97617 9.84461 10.2448 10.1132 10.5762 10.1132H13.5159C13.8473 10.1132 14.1159 9.84461 14.1159 9.51324C14.1159 9.18187 13.8473 8.91324 13.5159 8.91324H10.5762Z" fill="#999999"/>
</svg>
