<svg width="16" height="17" viewBox="0 0 16 17" fill="none" xmlns="http://www.w3.org/2000/svg">
<path d="M13.5309 7.16647C13.5309 10.3746 10.7005 13.0682 9.12592 14.3184C8.51778 14.8013 7.67988 14.8013 7.07174 14.3184C5.49712 13.0682 2.66673 10.3746 2.66673 7.16647C2.66673 5.72579 3.23904 4.34412 4.25776 3.3254C5.27647 2.30668 6.65815 1.73438 8.09883 1.73438C9.53951 1.73438 10.9212 2.30668 11.9399 3.3254C12.9586 4.34412 13.5309 5.72579 13.5309 7.16647Z" stroke="#94A0B4" stroke-width="1.5" stroke-linecap="round" stroke-linejoin="round"/>
<path d="M8.09874 9.63554C9.46241 9.63554 10.5679 8.53007 10.5679 7.1664C10.5679 5.80274 9.46241 4.69727 8.09874 4.69727C6.73508 4.69727 5.62961 5.80274 5.62961 7.1664C5.62961 8.53007 6.73508 9.63554 8.09874 9.63554Z" stroke="#94A0B4" stroke-width="1.5" stroke-linecap="round" stroke-linejoin="round"/>
</svg>
